# xmcd
#
# Track frame offsets:
#	150
#	15164
#	33625
#	52767
#	68156
#	87580
#	103037
#	122197
#	139738
#	156157
#	170688
#
# Disc length: 2470 seconds
#
# Revision: 3
# Processed by: cddbd v1.5.2PL0 Copyright (c) Steve Scherf et al.
# Submitted via: EasyCDDAExtractor 15.3.0.1
#
DISCID=8e09a40b
DTITLE=Edith Marquez - Quien Te Cantara - La Musica De Juan Carlos Calderon
DYEAR=2003
DGENRE=Latin
TTITLE0=Tomame O Dejame
TTITLE1=Noche De Copas
TTITLE2=Incondicional
TTITLE3=Quien Te Cantara
TTITLE4=Tengo Todo Excepto A Ti
TTITLE5=Rompeme, Matame
TTITLE6=Acariciame
TTITLE7=Culpable O No (Mienteme)
TTITLE8=El Primero, El Unico, El Ultimo
TTITLE9=Enamorada
TTITLE10=El Primero, El Unico, El Ultimo (Version Pop) (Bonus Track)
EXTD=Exelente disco de Edit marquez. YEAR: 2003
EXTT0=
EXTT1=
EXTT2=
EXTT3=
EXTT4=
EXTT5=
EXTT6=
EXTT7=
EXTT8=
EXTT9=
EXTT10=
PLAYORDER=
